
<svg width="32" height="32" viewBox="0 0 32 32" fill="none" xmlns="http://www.w3.org/2000/svg">
  <!-- Circle background with gradient -->
  <circle cx="16" cy="16" r="15" fill="url(#paint0_radial)" stroke="url(#paint1_linear)" stroke-width="0.75"/>
  
  <!-- Simplified "S" shape for small size -->
  <path d="M21 12C21 10.34 19.66 9 18 9H14C13.45 9 13 9.45 13 10V12C13 12.55 13.45 13 14 13H18C18.55 13 19 13.45 19 14V18C19 18.55 18.55 19 18 19H14C13.45 19 13 18.55 13 18V16" 
        stroke="#FFFFFF" stroke-width="1.75" stroke-linecap="round" stroke-linejoin="round"/>
  
  <!-- Slight glitch effect for favicon -->
  <path d="M21 12C21 10.34 19.66 9 18 9H14C13.45 9 13 9.45 13 10V12C13 12.55 13.45 13 14 13H18C18.55 13 19 13.45 19 14V18C19 18.55 18.55 19 18 19H14C13.45 19 13 18.55 13 18V16" 
        stroke="#D946EF" stroke-width="1.5" stroke-linecap="round" stroke-linejoin="round" opacity="0.8" transform="translate(0.2, 0.1)"/>
  
  <!-- Gradients definitions -->
  <defs>
    <radialGradient id="paint0_radial" cx="0" cy="0" r="1" gradientUnits="userSpaceOnUse" gradientTransform="translate(16 16) rotate(90) scale(15)">
      <stop offset="0" stop-color="#171923"/>
      <stop offset="0.7" stop-color="#0F111A"/>
      <stop offset="1" stop-color="#0A0B11"/>
    </radialGradient>
    <linearGradient id="paint1_linear" x1="6" y1="6" x2="26" y2="26" gradientUnits="userSpaceOnUse">
      <stop offset="0" stop-color="#8B5CF6"/>
      <stop offset="0.5" stop-color="#D946EF"/>
      <stop offset="1" stop-color="#0EA5E9"/>
    </linearGradient>
  </defs>
</svg>
