
<svg width="512" height="512" viewBox="0 0 512 512" fill="none" xmlns="http://www.w3.org/2000/svg">
  <!-- Circle background with gradient -->
  <circle cx="256" cy="256" r="248" fill="url(#paint0_radial)" stroke="url(#paint1_linear)" stroke-width="4"/>
  
  <!-- Silence "S" with glitch effect -->
  <g className="logo-text">
    <!-- Main "S" shape -->
    <path d="M324 192C324 165.49 302.51 144 276 144H210C201.16 144 194 151.16 194 160V192C194 200.84 201.16 208 210 208H276C285.94 208 294 216.06 294 226V286C294 295.94 285.94 304 276 304H210C200.06 304 192 295.94 192 286V256" 
          stroke="#FFFFFF" stroke-width="24" stroke-linecap="round" stroke-linejoin="round"/>
    
    <!-- Glitch effect for "S" -->
    <path d="M324 192C324 165.49 302.51 144 276 144H210C201.16 144 194 151.16 194 160V192C194 200.84 201.16 208 210 208H276C285.94 208 294 216.06 294 226V286C294 295.94 285.94 304 276 304H210C200.06 304 192 295.94 192 286V256" 
          stroke="#D946EF" stroke-width="24" stroke-linecap="round" stroke-linejoin="round" opacity="0.8" transform="translate(3, 2)"/>
    
    <path d="M324 192C324 165.49 302.51 144 276 144H210C201.16 144 194 151.16 194 160V192C194 200.84 201.16 208 210 208H276C285.94 208 294 216.06 294 226V286C294 295.94 285.94 304 276 304H210C200.06 304 192 295.94 192 286V256" 
          stroke="#0EA5E9" stroke-width="24" stroke-linecap="round" stroke-linejoin="round" opacity="0.8" transform="translate(-3, -2)"/>
  </g>
  
  <!-- Memory effect particles -->
  <circle cx="150" cy="180" r="6" fill="#D946EF" opacity="0.8">
    <animate attributeName="opacity" values="0.8;0.3;0.8" dur="4s" repeatCount="indefinite" />
  </circle>
  <circle cx="350" cy="350" r="4" fill="#0EA5E9" opacity="0.6">
    <animate attributeName="opacity" values="0.6;0.2;0.6" dur="3s" repeatCount="indefinite" />
  </circle>
  <circle cx="320" cy="140" r="5" fill="#8B5CF6" opacity="0.7">
    <animate attributeName="opacity" values="0.7;0.1;0.7" dur="5s" repeatCount="indefinite" />
  </circle>
  <circle cx="170" cy="330" r="3" fill="white" opacity="0.5">
    <animate attributeName="opacity" values="0.5;0.1;0.5" dur="2s" repeatCount="indefinite" />
  </circle>
  
  <!-- Gradients definitions -->
  <defs>
    <radialGradient id="paint0_radial" cx="0" cy="0" r="1" gradientUnits="userSpaceOnUse" gradientTransform="translate(256 256) rotate(90) scale(248)">
      <stop offset="0" stop-color="#1A1F2C"/>
      <stop offset="0.7" stop-color="#171923"/>
      <stop offset="1" stop-color="#111219"/>
    </radialGradient>
    <linearGradient id="paint1_linear" x1="100" y1="100" x2="400" y2="400" gradientUnits="userSpaceOnUse">
      <stop offset="0" stop-color="#8B5CF6"/>
      <stop offset="0.5" stop-color="#D946EF"/>
      <stop offset="1" stop-color="#0EA5E9"/>
    </linearGradient>
  </defs>
</svg>
